<svg width="512" height="512" viewBox="0 0 512 512" xmlns="http://www.w3.org/2000/svg">
  <!-- Player Ally Theme: Light Background -->
  <circle cx="256" cy="256" r="240" fill="#E8F5E9" stroke="#2E7D32" stroke-width="16"/>
  
  <!-- Central Icon: Medical Cross (Bold) -->
  <path d="M216 136 L296 136 L296 216 L376 216 L376 296 L296 296 L296 376 L216 376 L216 296 L136 296 L136 216 L216 216 Z" 
        fill="#D32F2F" stroke="#B71C1C" stroke-width="8"/>
        
  <!-- "Buffing" Particles (Rising Pluses) -->
  <!-- Left rising -->
  <g transform="translate(140, 180) scale(0.4)">
     <path d="M20 0 L40 0 L40 20 L60 20 L60 40 L40 40 L40 60 L20 60 L20 40 L0 40 L0 20 L20 20 Z" fill="#4CAF50"/>
  </g>
  <!-- Right rising -->
  <g transform="translate(350, 160) scale(0.5)">
     <path d="M20 0 L40 0 L40 20 L60 20 L60 40 L40 40 L40 60 L20 60 L20 40 L0 40 L0 20 L20 20 Z" fill="#4CAF50"/>
  </g>
  
  <!-- Aura/Radiance Circle behind cross -->
  <circle cx="256" cy="256" r="130" fill="none" stroke="#81C784" stroke-width="8" stroke-dasharray="10 10"/>
</svg>
